<?xml version="1.0" encoding="UTF-8" standalone="no"?>
<!DOCTYPE svg PUBLIC "-//W3C//DTD SVG 1.1//EN" "http://www.w3.org/Graphics/SVG/1.1/DTD/svg11.dtd">
<svg version="1.1" xmlns="http://www.w3.org/2000/svg" xmlns:xlink="http://www.w3.org/1999/xlink" preserveAspectRatio="xMidYMid meet" viewBox="0 0 230.24 332" width="230.24" height="332"><defs><path d="" id="c25w1arZJH"></path><path d="M69.63 113.34C69.63 138.9 90.43 159.7 116 159.7C141.57 159.7 162.37 138.9 162.37 113.34C162.37 87.77 141.57 66.97 116 66.97C90.43 66.97 69.63 87.77 69.63 113.34Z" id="bxw2BGHXB"></path><path d="M0.88 115.12C0.88 141.09 19.09 183.88 55.02 242.31C81.28 285.03 107.91 321.08 108.18 321.44C108.7 322.14 111.31 325.66 116 332C120.69 325.66 123.3 322.14 123.82 321.44C124.09 321.08 150.72 285.03 176.98 242.31C212.91 183.88 231.12 141.09 231.12 115.12C231.12 51.64 179.48 0 116 0C52.52 0 0.88 51.64 0.88 115.12ZM50.17 113.34C50.17 77.04 79.7 47.51 116 47.51C152.3 47.51 181.83 77.04 181.83 113.34C181.83 149.64 152.3 179.17 116 179.17C79.7 179.17 50.17 149.64 50.17 113.34Z" id="a9oafb3n"></path></defs><g><g><g><use xlink:href="#c25w1arZJH" opacity="1" fill="#b7fcec" fill-opacity="1"></use><g><use xlink:href="#c25w1arZJH" opacity="1" fill-opacity="0" stroke="#000000" stroke-width="1" stroke-opacity="0"></use></g></g><g><use xlink:href="#bxw2BGHXB" opacity="1" fill="#b7fcec" fill-opacity="1"></use><g><use xlink:href="#bxw2BGHXB" opacity="1" fill-opacity="0" stroke="#000000" stroke-width="1" stroke-opacity="0"></use></g></g><g><use xlink:href="#a9oafb3n" opacity="1" fill="#b7fcec" fill-opacity="1"></use><g><use xlink:href="#a9oafb3n" opacity="1" fill-opacity="0" stroke="#000000" stroke-width="1" stroke-opacity="0"></use></g></g></g></g></svg>